<svg xmlns="http://www.w3.org/2000/svg" class="icon" viewBox="0 0 20 20" fill="#fff">
  <path d="M10 5.455a4.545 4.545 0 1 0 0 9.09 4.545 4.545 0 0 0 0-9.09z"/>
  <path fill-rule="evenodd" d="M10 0a.91.91 0 0 1 .909.909v.909a.91.91 0 0 1-.909.909.91.91 0 0 1-.909-.909V.909A.91.91 0 0 1 10 0zM2.085 2.085a.91.91 0 0 1 1.285 0l1.364 1.364a.91.91 0 0 1-.011 1.274.91.91 0 0 1-1.274.011L2.085 3.37a.91.91 0 0 1 0-1.285zm15.831 0a.91.91 0 0 1 0 1.285l-1.364 1.364a.91.91 0 0 1-.646.277.91.91 0 0 1-.651-.266.91.91 0 0 1-.266-.651.91.91 0 0 1 .278-.646l1.364-1.364a.91.91 0 0 1 1.286 0zM0 10a.91.91 0 0 1 .909-.909h.909a.91.91 0 0 1 .909.909.91.91 0 0 1-.909.909H.909a.91.91 0 0 1-.643-.266A.91.91 0 0 1 0 10zm17.273 0a.91.91 0 0 1 .909-.909h.909A.91.91 0 0 1 20 10a.91.91 0 0 1-.909.909h-.909a.91.91 0 0 1-.909-.909zM4.734 15.266a.91.91 0 0 1 0 1.285L3.37 17.916a.91.91 0 0 1-1.274-.011.91.91 0 0 1-.011-1.274l1.364-1.364a.91.91 0 0 1 1.285 0zm10.533 0a.91.91 0 0 1 1.285 0l1.364 1.364a.91.91 0 0 1-.011 1.274.91.91 0 0 1-1.274.011l-1.364-1.364a.91.91 0 0 1 0-1.285zM10 17.273a.91.91 0 0 1 .909.909v.909A.91.91 0 0 1 10 20a.91.91 0 0 1-.909-.909v-.909a.91.91 0 0 1 .909-.909z" />
</svg>
