<svg width="74" height="43" viewBox="0 0 74 43" fill="none" xmlns="http://www.w3.org/2000/svg">
<path d="M25.261 3.37717C21.2505 3.78017 17.1263 5.07692 14.25 6.27942V10H11V5.21342C11.0001 4.90155 11.0899 4.59628 11.2588 4.33408C11.4276 4.07187 11.6684 3.86378 11.9523 3.73467C15.0463 2.32742 20.0123 0.640669 24.9328 0.143419C29.1578 -0.279081 33.7988 0.130419 37 2.88317C40.2013 0.130419 44.8423 -0.282331 49.0673 0.143419C53.9878 0.640669 58.9538 2.32742 62.0478 3.73467C62.3316 3.86378 62.5724 4.07187 62.7412 4.33408C62.9101 4.59628 62.9999 4.90155 63 5.21342V10H59.75V6.27942C56.8738 5.07692 52.7495 3.78017 48.739 3.37717C44.4165 2.94167 40.7505 3.58192 38.625 5.82117V10H35.375V5.82117C33.2495 3.58192 29.5835 2.94167 25.261 3.37717Z" fill="#33414B"/>
<path d="M14.25 32V38.5292C17.2303 37.3917 21.0978 36.2834 24.9328 35.8934C28.485 35.5359 32.3363 35.7732 35.375 37.4957V32H38.625V37.4957C41.6638 35.7699 45.5118 35.5359 49.0673 35.8967C52.9023 36.2802 56.7665 37.3917 59.75 38.5292V32H63V40.9634C62.9999 41.2353 62.9316 41.5028 62.8014 41.7415C62.6711 41.9801 62.4831 42.1823 62.2544 42.3294C62.0258 42.4766 61.7639 42.564 61.4927 42.5837C61.2215 42.6034 60.9497 42.5547 60.7023 42.4422C57.839 41.1422 53.2175 39.5789 48.739 39.1272C44.163 38.6657 40.3248 39.4099 38.2675 41.9774C38.1152 42.1672 37.9223 42.3204 37.7029 42.4256C37.4835 42.5309 37.2433 42.5855 37 42.5855C36.7567 42.5855 36.5165 42.5309 36.2971 42.4256C36.0777 42.3204 35.8848 42.1672 35.7325 41.9774C33.6753 39.4099 29.837 38.6657 25.2578 39.1272C20.7825 39.5789 16.1643 41.1422 13.2978 42.4422C13.0503 42.5547 12.7785 42.6034 12.5073 42.5837C12.2361 42.564 11.9742 42.4766 11.7456 42.3294C11.517 42.1823 11.3289 41.9801 11.1986 41.7415C11.0684 41.5028 11.0001 41.2353 11 40.9634V32H14.25Z" fill="#33414B"/>
<path d="M0.291199 28H2.66265V22.4389H8.7287V28H11.1065V14.9091H8.7287V20.451H2.66265V14.9091H0.291199V28Z" fill="#33414B"/>
<path d="M16.0572 14.9091H13.6857V28H16.0572V14.9091Z" fill="#33414B"/>
<path d="M29.383 14.9091H27.0243V23.8324H26.9093L20.7473 14.9091H18.6252V28H20.9966V19.0831H21.1053L27.2736 28H29.383V14.9091Z" fill="#33414B"/>
<path d="M33.6481 28L34.7283 24.772H39.6502L40.7369 28H43.2681L38.6531 14.9091H35.7255L31.1168 28H33.6481ZM35.3675 22.8672L37.1381 17.5938H37.2404L39.011 22.8672H35.3675ZM36.3008 13.6179H38.033L39.9954 10.6967H37.7326L36.3008 13.6179Z" fill="#33414B"/>
<path d="M44.9924 28H47.3638V23.206H49.78L52.3496 28H54.9959L52.1642 22.8097C53.7047 22.1896 54.5165 20.8729 54.5165 19.0959C54.5165 16.5966 52.9057 14.9091 49.9015 14.9091H44.9924V28ZM47.3638 21.2372V16.8906H49.5371C51.3077 16.8906 52.1003 17.7024 52.1003 19.0959C52.1003 20.4893 51.3077 21.2372 49.5499 21.2372H47.3638Z" fill="#33414B"/>
<path d="M59.0709 14.9091H56.6994V28H59.0709V14.9091Z" fill="#33414B"/>
<path d="M73.3363 21.4545C73.3363 17.223 70.7539 14.7301 67.3214 14.7301C63.8825 14.7301 61.3065 17.223 61.3065 21.4545C61.3065 25.6797 63.8825 28.179 67.3214 28.179C70.7539 28.179 73.3363 25.6861 73.3363 21.4545ZM70.9521 21.4545C70.9521 24.4332 69.4563 26.0504 67.3214 26.0504C65.1928 26.0504 63.6907 24.4332 63.6907 21.4545C63.6907 18.4759 65.1928 16.8587 67.3214 16.8587C69.4563 16.8587 70.9521 18.4759 70.9521 21.4545Z" fill="#33414B"/>
</svg>
