<svg width="16" height="17" viewBox="0 0 16 17" fill="none" xmlns="http://www.w3.org/2000/svg">
  <path d="M14.9778 8.97882C14.4269 9.12513 13.8594 9.19919 13.2894 9.19913C11.5538 9.19913 9.92384 8.52439 8.69957 7.30012C7.89562 6.49154 7.31764 5.48636 7.02324 4.38479C6.72884 3.28321 6.7283 2.12371 7.02168 1.02186C7.05832 0.884099 7.05809 0.739121 7.02101 0.601474C6.98393 0.463827 6.9113 0.338351 6.81042 0.237632C6.70954 0.136914 6.58394 0.0644943 6.44623 0.0276387C6.30853 -0.00921691 6.16355 -0.00921283 6.02584 0.0276505C4.64643 0.395244 3.38793 1.11911 2.3766 2.12664C-0.7922 5.29544 -0.7922 10.4535 2.3766 13.6239C3.1298 14.3813 4.02574 14.9818 5.01256 15.3907C5.99938 15.7995 7.05748 16.0086 8.12564 16.0058C9.19352 16.0088 10.2514 15.7999 11.2379 15.3912C12.2245 14.9824 13.1202 14.382 13.8731 13.6247C14.8813 12.6132 15.6055 11.354 15.9729 9.97385C16.0093 9.83614 16.009 9.69127 15.972 9.55372C15.9349 9.41616 15.8624 9.29075 15.7617 9.19002C15.6609 9.08928 15.5355 9.01676 15.398 8.9797C15.2604 8.94264 15.1155 8.94233 14.9778 8.97882V8.97882ZM12.7244 12.4752C12.122 13.0809 11.4054 13.5612 10.6162 13.8881C9.82696 14.215 8.98072 14.3822 8.12645 14.3799C7.2719 14.3821 6.42539 14.2147 5.6359 13.8877C4.84641 13.5606 4.12959 13.0803 3.5269 12.4744C0.992181 9.93889 0.992181 5.81246 3.5269 3.27693C4.01669 2.78769 4.58216 2.38061 5.20153 2.07136C5.11087 3.24121 5.27384 4.41685 5.67931 5.51793C6.08478 6.619 6.72319 7.61957 7.5509 8.45123C8.38074 9.28154 9.38101 9.92171 10.4825 10.3275C11.5841 10.7333 12.7606 10.895 13.9308 10.8014C13.6198 11.4197 13.2126 11.9847 12.7244 12.4752V12.4752Z" fill="#33414B" />
</svg>
